<svg xmlns="http://www.w3.org/2000/svg" width="192.728" height="25.641" viewBox="0 0 192.728 25.641">
  <g id="Group_30" data-name="Group 30" transform="translate(-0.557 -4.346)">
    <path id="Path_13" data-name="Path 13" d="M4.868,5.336h8.254c4.028,0,5.077,2.269,4.4,5.39-.567,2.694-1.986,4.453-4.481,4.822V15.6c2.5.227,2.922,1.844,2.354,4.539l-.369,1.73a8.218,8.218,0,0,0-.34,2.808.95.95,0,0,0,.454.624l-.057.284H9.463a10.683,10.683,0,0,1,.312-3.858l.283-1.361c.482-2.3.17-2.893-1.106-2.893H7.563l-1.73,8.112H.557ZM8.328,13.9h1.05a2.7,2.7,0,0,0,2.723-2.41c.34-1.645-.17-2.354-1.759-2.354H9.321Z" transform="translate(0 -0.593)" fill="#804224"/>
    <path id="Path_14" data-name="Path 14" d="M47.593,32.726c-5.985,0-5.758-3.659-4.794-8.084.851-4.028,2.468-8.055,8.225-8.055,5.985,0,5.758,3.659,4.794,8.084C54.967,28.7,53.35,32.726,47.593,32.726Zm.709-3.29c1.163,0,1.588-.908,2.411-4.765.851-3.886.766-4.794-.4-4.794-1.134,0-1.588.908-2.439,4.794C47.053,28.528,47.167,29.436,48.3,29.436Z" transform="translate(-24.996 -7.334)" fill="#804224"/>
    <path id="Path_15" data-name="Path 15" d="M83.142,25.521l-.425,2.014c-.34,1.645.227,2.07.936,2.07.908,0,1.588-.567,2.014-2.666h4.6a7.387,7.387,0,0,1-2.354,4.283,7.22,7.22,0,0,1-4.879,1.5c-4.935,0-6.041-2.212-4.822-8.055,1.248-5.871,3.659-8.084,8.254-8.084,4.084,0,5.757,1.815,4.595,7.374l-.341,1.56Zm3.546-3.46c.34-1.617.17-2.354-.908-2.354-1.049,0-1.56.738-1.9,2.354l-.142.681h2.808Z" transform="translate(-46.25 -7.334)" fill="#804224"/>
    <path id="Path_16" data-name="Path 16" d="M115.437,27.564a2.4,2.4,0,0,0,.028,1.5,1.042,1.042,0,0,0,.964.539,1.741,1.741,0,0,0,1.759-1.3c.6-2.723-7.176-1.106-5.928-6.921.567-2.694,2.978-4.793,7.119-4.793,3.829,0,5.417,1.616,4.737,4.822h-4.425c.284-1.3-.142-1.7-.993-1.7a1.512,1.512,0,0,0-1.56,1.191c-.539,2.525,7.2.823,5.957,6.694-.624,2.978-3.375,5.134-7.233,5.134-4.283,0-5.616-1.815-4.907-5.162Z" transform="translate(-66.035 -7.334)" fill="#804224"/>
    <path id="Path_17" data-name="Path 17" d="M147.062,10.837h1.7l.964-4.51h5.105l-.964,4.51h2.014l-.738,3.432h-2.014l-1.56,7.318c-.17.879.17,1.191.993,1.191h.794l-.738,3.4a24.791,24.791,0,0,1-2.808.17c-3.12,0-4.226-.511-3.517-3.914l1.73-8.169h-1.7Z" transform="translate(-87.193 -1.187)" fill="#804224"/>
    <path id="Path_18" data-name="Path 18" d="M170.238,17.577h5.275l-.908,11.034h.056l3.773-11.034h5.275L176.7,32.922h-6.013Z" transform="translate(-101.661 -7.927)" fill="#804224"/>
    <path id="Path_19" data-name="Path 19" d="M204.989,25.521l-.425,2.014c-.34,1.645.227,2.07.936,2.07.908,0,1.589-.567,2.014-2.666h4.595a7.389,7.389,0,0,1-2.354,4.283,7.221,7.221,0,0,1-4.879,1.5c-4.936,0-6.042-2.212-4.822-8.055,1.248-5.871,3.659-8.084,8.254-8.084,4.084,0,5.758,1.815,4.595,7.374l-.34,1.56Zm3.546-3.46c.34-1.617.17-2.354-.908-2.354-1.049,0-1.56.738-1.9,2.354l-.142.681h2.808Z" transform="translate(-119.252 -7.334)" fill="#804224"/>
    <path id="Path_20" data-name="Path 20" d="M234.777,16.984h4.936l-.511,2.439h.057a4.756,4.756,0,0,1,4.028-2.836h.823l-1.021,4.765a6.173,6.173,0,0,0-1.248-.113,3.077,3.077,0,0,0-3.432,2.723l-1.787,8.367h-5.105Z" transform="translate(-138.375 -7.334)" fill="#804224"/>
    <path id="Path_21" data-name="Path 21" d="M263.14,13.082h-1.759l.738-3.432h1.759l.227-1.106c.652-3.063,2.1-4.2,5.644-4.2a17.131,17.131,0,0,1,2.383.17l-.681,3.2a3.167,3.167,0,0,0-.823-.085,1.39,1.39,0,0,0-1.447,1.078l-.2.936h2.07l-.737,3.432h-2.071l-2.524,11.913h-5.106Z" transform="translate(-155.809)" fill="#804224"/>
    <path id="Path_22" data-name="Path 22" d="M286.48,27.564a2.4,2.4,0,0,0,.028,1.5,1.042,1.042,0,0,0,.964.539,1.742,1.742,0,0,0,1.759-1.3c.6-2.723-7.176-1.106-5.928-6.921.567-2.694,2.978-4.793,7.119-4.793,3.829,0,5.417,1.616,4.737,4.822h-4.424c.283-1.3-.142-1.7-.993-1.7a1.512,1.512,0,0,0-1.56,1.191c-.539,2.525,7.2.823,5.956,6.694-.624,2.978-3.375,5.134-7.233,5.134-4.283,0-5.616-1.815-4.907-5.162Z" transform="translate(-168.512 -7.334)" fill="#2e2e2d"/>
    <path id="Path_23" data-name="Path 23" d="M318.138,5.336h5.105l-1.418,6.609h.057a4.88,4.88,0,0,1,4-2.1c2.1,0,3.8.964,3.12,4.169l-2.468,11.572h-5.105l2.155-10.126c.255-1.276.028-1.815-.879-1.815s-1.362.539-1.617,1.815l-2.155,10.126h-5.106Z" transform="translate(-187.69 -0.593)" fill="#2e2e2d"/>
    <path id="Path_24" data-name="Path 24" d="M357.609,32.726c-5.985,0-5.758-3.659-4.794-8.084.851-4.028,2.468-8.055,8.225-8.055,5.985,0,5.758,3.659,4.793,8.084C364.983,28.7,363.366,32.726,357.609,32.726Zm.709-3.29c1.163,0,1.589-.908,2.411-4.765.851-3.886.766-4.794-.4-4.794-1.134,0-1.588.908-2.439,4.794C357.069,28.528,357.183,29.436,358.317,29.436Z" transform="translate(-210.736 -7.334)" fill="#2e2e2d"/>
    <path id="Path_25" data-name="Path 25" d="M387.908,16.984h4.935l-.454,2.1h.057a4.476,4.476,0,0,1,4.028-2.5c3.431,0,4.028,2.723,2.808,8.4-1.248,5.871-3.517,7.743-6.353,7.743-1.446,0-2.581-.567-2.751-2.127h-.057L388.7,37.321H383.6Zm4,11.941c1.191,0,1.645-.964,2.354-4.283.681-3.29.624-4.254-.567-4.254-1.163,0-1.617.964-2.3,4.254C390.688,27.96,390.745,28.925,391.907,28.925Z" transform="translate(-229.491 -7.334)" fill="#2e2e2d"/>
    <path id="Path_26" data-name="Path 26" d="M423.585,45.348h3.574l-.894,4.212h-3.574Z" transform="translate(-252.913 -24.566)" fill="#2e2e2d"/>
    <path id="Path_27" data-name="Path 27" d="M438.4,26.7h3.7l-.3,1.4h.042A3.586,3.586,0,0,1,445,26.4c1.681,0,2.851.659,2.34,3.127l-1.851,8.68H441.66l1.617-7.6c.191-.957.021-1.361-.66-1.361s-1.021.4-1.213,1.361l-1.617,7.6h-3.83Z" transform="translate(-260.862 -13.214)" fill="#2e2e2d"/>
    <path id="Path_28" data-name="Path 28" d="M466.947,17.964h3.829l-3.234,15.19h-3.83Z" transform="translate(-277.491 -8.159)" fill="#2e2e2d"/>
  </g>
</svg>
