<svg xmlns="http://www.w3.org/2000/svg" width="28.156" height="22.127" viewBox="0 0 28.156 22.127">
  <path id="Path_31" data-name="Path 31" d="M32.094,19.988,28.82,30.3a1.735,1.735,0,0,1-1.653,1.224H14.528a1.8,1.8,0,0,1-1.683-1.132L8.009,17.448H5.224a1.224,1.224,0,0,1,0-2.448H8.866a1.253,1.253,0,0,1,1.163.826l4.988,13.251H26.647l2.6-8.263H14.834a1.224,1.224,0,1,1,0-2.448h16.1a1.217,1.217,0,0,1,.979.52A1.187,1.187,0,0,1,32.094,19.988ZM15.14,33.148a1.985,1.985,0,1,0,1.408.581A2.018,2.018,0,0,0,15.14,33.148Zm10.987,0a1.985,1.985,0,1,0,1.408.581A2.018,2.018,0,0,0,26.127,33.148Z" transform="translate(-4 -15)" fill="#fff"/>
</svg>
